<svg xmlns="http://www.w3.org/2000/svg" viewBox="0 0 64 64" width="64" height="64" role="img" aria-label="NUMMA — logiciel de gestion tout-en-un">
  <defs>
    <linearGradient id="numma-grad-main" x1="10%" y1="10%" x2="95%" y2="95%">
      <stop offset="0%" stop-color="#5B21B6"/>
      <stop offset="30%" stop-color="#7C3AED"/>
      <stop offset="55%" stop-color="#A78BFA"/>
      <stop offset="78%" stop-color="#F9A8D4"/>
      <stop offset="100%" stop-color="#FB923C"/>
    </linearGradient>
    <linearGradient id="numma-grad-soft" x1="0%" y1="0%" x2="100%" y2="100%">
      <stop offset="0%" stop-color="#FFFFFF" stop-opacity="0.65"/>
      <stop offset="100%" stop-color="#FFFFFF" stop-opacity="0"/>
    </linearGradient>
  </defs>
  <rect x="0" y="0" width="64" height="64" rx="16" fill="white"/>
  <!-- Stylized N with curved sweep mimicking the brand mark -->
  <path d="M14 50 V16 Q14 12 18 12 L22 12 Q26 12 28 16 Q34 28 40 38 Q42 41 42 37 V16 Q42 12 46 12 L48 12 Q52 12 52 16 V48 Q52 52 48 52 L44 52 Q40 52 38 48 Q32 36 26 26 Q24 23 24 27 V48 Q24 52 20 52 L18 52 Q14 52 14 48 Z"
        fill="url(#numma-grad-main)"/>
  <!-- subtle highlight -->
  <path d="M14 48 V20 Q14 14 20 14 Q22 14 24 16 L26 20 Q22 22 22 28 V44"
        fill="none" stroke="url(#numma-grad-soft)" stroke-width="2" stroke-linecap="round" opacity="0.8"/>
</svg>
