<svg xmlns="http://www.w3.org/2000/svg" viewBox="0 0 1200 760" role="img" aria-label="Tableau de bord NUMMA — vue d'accueil avec KPI, à faire aujourd'hui et récap rapide">
  <title>Tableau de bord NUMMA — Accueil</title>
  <desc>Capture d'écran du logiciel NUMMA : tableau de bord d'accueil avec 5 indicateurs clés (CA, trésorerie, impayées, en retard, TVA), liste des tâches urgentes à faire et récap rapide latéral.</desc>
  <defs>
    <linearGradient id="ng-avatar" x1="0" y1="0" x2="1" y2="1">
      <stop offset="0%" stop-color="#7C3AED"/>
      <stop offset="100%" stop-color="#5B21B6"/>
    </linearGradient>
    <linearGradient id="ng-button" x1="0" y1="0" x2="1" y2="0">
      <stop offset="0%" stop-color="#7C3AED"/>
      <stop offset="100%" stop-color="#A78BFA"/>
    </linearGradient>
    <filter id="ng-shadow" x="-10%" y="-10%" width="120%" height="120%">
      <feDropShadow dx="0" dy="2" stdDeviation="4" flood-color="#0B0F19" flood-opacity="0.05"/>
    </filter>
  </defs>
  <style>
    .f{font-family:'Inter','Helvetica Neue',Arial,sans-serif}
    .ink{fill:#0F172A}
    .ink-700{fill:#334155}
    .ink-500{fill:#64748B}
    .ink-400{fill:#94A3B8}
    .red{fill:#DC2626}
    .orange{fill:#FB923C}
    .purple{fill:#7C3AED}
    .green{fill:#10B981}
    .card{fill:#fff;stroke:#E2E8F0;stroke-width:1}
    .border{fill:none;stroke:#E2E8F0;stroke-width:1}
  </style>

  <!-- ================ BACKGROUND ================ -->
  <rect width="1200" height="760" fill="#F1F5F9"/>

  <!-- ================ LEFT SIDEBAR (dark) ================ -->
  <rect x="0" y="0" width="240" height="760" fill="#1E1A2E"/>

  <!-- Sidebar : company switcher -->
  <rect x="14" y="14" width="212" height="56" rx="10" fill="#2A2440"/>
  <rect x="22" y="22" width="40" height="40" rx="8" fill="url(#ng-avatar)"/>
  <text x="42" y="48" text-anchor="middle" font-size="14" font-weight="800" fill="#fff" class="f">G</text>
  <text x="72" y="38" font-size="13" font-weight="700" fill="#fff" class="f">GIOVVVV</text>
  <rect x="72" y="46" width="44" height="16" rx="8" fill="#3D2A6B"/>
  <text x="94" y="57" text-anchor="middle" font-size="9" font-weight="700" fill="#C4B5FD" class="f">Admin</text>

  <!-- Sidebar nav : Accueil (active) -->
  <rect x="14" y="88" width="212" height="42" rx="8" fill="#7C3AED"/>
  <path d="M30 105 l8-7 8 7 v8 h-16 z" fill="none" stroke="#fff" stroke-width="1.6" stroke-linejoin="round"/>
  <text x="56" y="113" font-size="13" font-weight="600" fill="#fff" class="f">Accueil</text>

  <!-- Section : FACTURATION -->
  <text x="22" y="160" font-size="10" font-weight="700" fill="#94A3B8" letter-spacing="1" class="f">FACTURATION</text>
  <text x="220" y="160" text-anchor="end" font-size="14" fill="#64748B" class="f">⌄</text>

  <text x="48" y="186" font-size="13" fill="#CBD5E1" class="f">Factures ventes</text>
  <rect x="22" y="178" width="14" height="12" rx="2" fill="none" stroke="#94A3B8" stroke-width="1.4"/>
  <line x1="25" y1="183" x2="33" y2="183" stroke="#94A3B8" stroke-width="1"/>

  <text x="48" y="212" font-size="13" fill="#CBD5E1" class="f">Factures achats</text>
  <path d="M22 207 h14 v-3 l-3 -3 h-11 v6 z" fill="none" stroke="#94A3B8" stroke-width="1.4"/>

  <text x="48" y="238" font-size="13" fill="#CBD5E1" class="f">Devis</text>
  <rect x="22" y="230" width="14" height="12" rx="2" fill="none" stroke="#94A3B8" stroke-width="1.4"/>

  <text x="48" y="264" font-size="13" fill="#CBD5E1" class="f">Catalogue</text>
  <rect x="22" y="256" width="14" height="12" rx="2" fill="none" stroke="#94A3B8" stroke-width="1.4"/>

  <text x="48" y="290" font-size="13" fill="#CBD5E1" class="f">Relances</text>
  <path d="M27 285 a4 4 0 0 1 6 0 v4 h-6 z M28 290 v2" fill="none" stroke="#94A3B8" stroke-width="1.4"/>

  <!-- Section : CLIENTS / FOURNISSEURS (collapsed) -->
  <text x="22" y="330" font-size="10" font-weight="700" fill="#94A3B8" letter-spacing="1" class="f">CLIENTS / FOURNISSEURS</text>
  <text x="220" y="330" text-anchor="end" font-size="14" fill="#64748B" class="f">›</text>

  <!-- Section : COMPTABILITÉ (collapsed) -->
  <text x="22" y="360" font-size="10" font-weight="700" fill="#94A3B8" letter-spacing="1" class="f">COMPTABILITÉ</text>
  <text x="220" y="360" text-anchor="end" font-size="14" fill="#64748B" class="f">›</text>

  <!-- Section : FINANCE (collapsed) -->
  <text x="22" y="390" font-size="10" font-weight="700" fill="#94A3B8" letter-spacing="1" class="f">FINANCE</text>
  <text x="220" y="390" text-anchor="end" font-size="14" fill="#64748B" class="f">›</text>

  <!-- Section : RH (collapsed) -->
  <text x="22" y="420" font-size="10" font-weight="700" fill="#94A3B8" letter-spacing="1" class="f">RH</text>
  <text x="220" y="420" text-anchor="end" font-size="14" fill="#64748B" class="f">›</text>

  <!-- Section : PARAMÈTRES (expanded) -->
  <text x="22" y="460" font-size="10" font-weight="700" fill="#94A3B8" letter-spacing="1" class="f">PARAMÈTRES</text>
  <text x="220" y="460" text-anchor="end" font-size="14" fill="#64748B" class="f">⌄</text>

  <text x="48" y="486" font-size="13" fill="#CBD5E1" class="f">Réglages</text>
  <circle cx="29" cy="481" r="5" fill="none" stroke="#94A3B8" stroke-width="1.4"/>

  <text x="48" y="512" font-size="13" fill="#CBD5E1" class="f">Équipe</text>
  <circle cx="29" cy="507" r="4" fill="none" stroke="#94A3B8" stroke-width="1.4"/>
  <path d="M22 514 q7 -4 14 0" fill="none" stroke="#94A3B8" stroke-width="1.4"/>

  <!-- Sidebar : user footer -->
  <rect x="14" y="678" width="212" height="68" rx="10" fill="#2A2440"/>
  <circle cx="34" cy="712" r="16" fill="url(#ng-avatar)"/>
  <text x="34" y="717" text-anchor="middle" font-size="12" font-weight="800" fill="#fff" class="f">MT</text>
  <text x="58" y="708" font-size="12" font-weight="700" fill="#fff" class="f">MALLO TEST TEST 1</text>
  <text x="58" y="722" font-size="10" fill="#94A3B8" class="f">mallorychazal@yahoo.fr</text>
  <text x="58" y="738" font-size="10" font-weight="600" fill="#A78BFA" class="f">↩ Se déconnecter</text>

  <!-- ================ MAIN AREA ================ -->
  <!-- Top bar -->
  <rect x="240" y="0" width="680" height="60" fill="#fff" stroke="#E2E8F0" stroke-width="1"/>
  <text x="262" y="36" font-size="14" font-weight="600" class="ink f">Accueil</text>

  <!-- Search bar -->
  <rect x="380" y="16" width="280" height="28" rx="14" fill="#F1F5F9"/>
  <circle cx="397" cy="30" r="5" fill="none" stroke="#94A3B8" stroke-width="1.6"/>
  <line x1="400" y1="33" x2="404" y2="37" stroke="#94A3B8" stroke-width="1.6" stroke-linecap="round"/>
  <text x="411" y="34" font-size="12" fill="#94A3B8" class="f">Rechercher...</text>

  <!-- Bell icon -->
  <path d="M710 24 q0 -6 6 -6 t6 6 v6 l3 4 h-18 l3 -4 z" fill="none" stroke="#475569" stroke-width="1.5"/>
  <circle cx="724" cy="22" r="8" fill="#DC2626"/>
  <text x="724" y="25" text-anchor="middle" font-size="9" font-weight="700" fill="#fff" class="f">9+</text>

  <!-- User avatar top right -->
  <circle cx="765" cy="30" r="14" fill="url(#ng-avatar)"/>
  <text x="765" y="34" text-anchor="middle" font-size="11" font-weight="800" fill="#fff" class="f">MT</text>
  <text x="788" y="34" font-size="12" font-weight="700" class="ink f">MALLO TEST ⌄</text>

  <!-- Greeting -->
  <text x="262" y="100" font-size="24" font-weight="800" class="ink f">Bonjour MALLO TEST 👋</text>
  <text x="262" y="124" font-size="13" class="ink-500 f">Mercredi 10 Juin 2026</text>

  <!-- "Actualiser" button -->
  <rect x="828" y="84" width="86" height="30" rx="8" fill="#F1F5F9"/>
  <text x="871" y="103" text-anchor="middle" font-size="12" font-weight="600" class="ink-700 f">↻ Actualiser</text>

  <!-- ================ KPI TILES ROW ================ -->
  <!-- Tile 1 : CA DU MOIS -->
  <rect x="262" y="148" width="124" height="120" rx="12" class="card" filter="url(#ng-shadow)"/>
  <text x="276" y="170" font-size="10" font-weight="700" letter-spacing="1" class="ink-500 f">CA DU MOIS</text>
  <text x="276" y="200" font-size="20" font-weight="800" class="ink f">264,00 €</text>
  <text x="276" y="222" font-size="10" class="red f">↘ -92% vs mois précédent</text>
  <text x="276" y="252" font-size="11" font-weight="600" class="purple f">Voir le détail →</text>

  <!-- Tile 2 : TRÉSORERIE -->
  <rect x="394" y="148" width="124" height="120" rx="12" class="card" filter="url(#ng-shadow)"/>
  <text x="408" y="170" font-size="10" font-weight="700" letter-spacing="1" class="ink-500 f">TRÉSORERIE</text>
  <text x="408" y="200" font-size="18" font-weight="800" class="orange f">3 335,99 €</text>
  <text x="408" y="222" font-size="10" class="ink-500 f">CA encaissé - dépenses</text>
  <text x="408" y="252" font-size="11" font-weight="600" class="purple f">Voir le détail →</text>

  <!-- Tile 3 : IMPAYÉES -->
  <rect x="526" y="148" width="124" height="120" rx="12" class="card" filter="url(#ng-shadow)"/>
  <text x="540" y="170" font-size="10" font-weight="700" letter-spacing="1" class="ink-500 f">IMPAYÉES</text>
  <text x="540" y="200" font-size="18" font-weight="800" class="red f">2 640,00 €</text>
  <text x="540" y="222" font-size="10" class="ink-500 f">Factures en attente</text>
  <text x="540" y="252" font-size="11" font-weight="600" class="purple f">Voir le détail →</text>

  <!-- Tile 4 : EN RETARD -->
  <rect x="658" y="148" width="124" height="120" rx="12" class="card" filter="url(#ng-shadow)"/>
  <text x="672" y="170" font-size="10" font-weight="700" letter-spacing="1" class="ink-500 f">EN RETARD</text>
  <text x="672" y="200" font-size="20" font-weight="800" class="red f">2 factures</text>
  <text x="672" y="222" font-size="10" class="ink-500 f">Dépassement d'échéance</text>
  <text x="672" y="252" font-size="11" font-weight="600" class="purple f">Voir le détail →</text>

  <!-- Tile 5 : TVA À PAYER -->
  <rect x="790" y="148" width="124" height="120" rx="12" class="card" filter="url(#ng-shadow)"/>
  <text x="804" y="170" font-size="10" font-weight="700" letter-spacing="1" class="ink-500 f">TVA À PAYER</text>
  <text x="804" y="200" font-size="20" font-weight="800" class="ink f">370,00 €</text>
  <text x="804" y="222" font-size="10" class="ink-500 f">Mois en cours</text>
  <text x="804" y="252" font-size="11" font-weight="600" class="purple f">Voir le détail →</text>

  <!-- ================ "À FAIRE AUJOURD'HUI" SECTION ================ -->
  <rect x="262" y="296" width="652" height="448" rx="12" class="card" filter="url(#ng-shadow)"/>

  <text x="284" y="328" font-size="14" font-weight="700" class="ink f">À faire aujourd'hui</text>
  <rect x="836" y="314" width="64" height="20" rx="10" fill="#FEE2E2"/>
  <text x="868" y="328" text-anchor="middle" font-size="10" font-weight="700" fill="#DC2626" class="f">3 urgents</text>

  <line x1="284" y1="348" x2="892" y2="348" stroke="#E2E8F0" stroke-width="1"/>

  <!-- Task 1 : Facture FAC-2026-001 (Urgent) -->
  <rect x="284" y="364" width="4" height="36" rx="2" fill="#DC2626"/>
  <circle cx="304" cy="382" r="9" fill="#FEE2E2"/>
  <text x="304" y="386" text-anchor="middle" font-size="11" fill="#DC2626" class="f">⏱</text>
  <text x="324" y="378" font-size="13" font-weight="600" class="ink f">Facture FAC-2026-001 impayée</text>
  <rect x="566" y="368" width="48" height="18" rx="9" fill="#FEE2E2"/>
  <text x="590" y="381" text-anchor="middle" font-size="10" font-weight="700" fill="#DC2626" class="f">Urgent</text>
  <text x="324" y="396" font-size="11" class="ink-500 f">GIOVY TEST — 20 jours de retard</text>
  <text x="324" y="412" font-size="11" font-weight="600" class="ink-700 f">1440,00 €</text>
  <text x="868" y="386" text-anchor="end" font-size="11" font-weight="600" class="purple f">Voir la facture →</text>
  <line x1="284" y1="428" x2="892" y2="428" stroke="#E2E8F0" stroke-width="1"/>

  <!-- Task 2 : Facture FAC-2026-003 (Urgent) -->
  <rect x="284" y="442" width="4" height="36" rx="2" fill="#DC2626"/>
  <circle cx="304" cy="460" r="9" fill="#FEE2E2"/>
  <text x="304" y="464" text-anchor="middle" font-size="11" fill="#DC2626" class="f">⏱</text>
  <text x="324" y="456" font-size="13" font-weight="600" class="ink f">Facture FAC-2026-003 impayée</text>
  <rect x="566" y="446" width="48" height="18" rx="9" fill="#FEE2E2"/>
  <text x="590" y="459" text-anchor="middle" font-size="10" font-weight="700" fill="#DC2626" class="f">Urgent</text>
  <text x="324" y="474" font-size="11" class="ink-500 f">GIOVY TEST — 11 jours de retard</text>
  <text x="324" y="490" font-size="11" font-weight="600" class="ink-700 f">1200,00 €</text>
  <text x="868" y="464" text-anchor="end" font-size="11" font-weight="600" class="purple f">Voir la facture →</text>
  <line x1="284" y1="506" x2="892" y2="506" stroke="#E2E8F0" stroke-width="1"/>

  <!-- Task 3 : TVA à déclarer (Urgent) -->
  <rect x="284" y="520" width="4" height="36" rx="2" fill="#DC2626"/>
  <circle cx="304" cy="538" r="9" fill="#FEE2E2"/>
  <text x="304" y="542" text-anchor="middle" font-size="11" fill="#DC2626" class="f">📅</text>
  <text x="324" y="534" font-size="13" font-weight="600" class="ink f">TVA à déclarer</text>
  <rect x="430" y="524" width="48" height="18" rx="9" fill="#FEE2E2"/>
  <text x="454" y="537" text-anchor="middle" font-size="10" font-weight="700" fill="#DC2626" class="f">Urgent</text>
  <text x="324" y="552" font-size="11" class="ink-500 f">Déclaration mai 2026 à soumettre avant le 15</text>
  <text x="868" y="542" text-anchor="end" font-size="11" font-weight="600" class="purple f">Déclarer la TVA →</text>
  <line x1="284" y1="572" x2="892" y2="572" stroke="#E2E8F0" stroke-width="1"/>

  <!-- Task 4 : Devis DEV-2026-001 (Moyen) -->
  <circle cx="304" cy="600" r="9" fill="#F1F5F9"/>
  <text x="304" y="604" text-anchor="middle" font-size="11" fill="#64748B" class="f">📄</text>
  <text x="324" y="596" font-size="13" font-weight="600" class="ink f">Devis DEV-2026-001 sans réponse</text>
  <rect x="600" y="586" width="50" height="18" rx="9" fill="#FED7AA"/>
  <text x="625" y="599" text-anchor="middle" font-size="10" font-weight="700" fill="#C2410C" class="f">Moyen</text>
  <text x="324" y="614" font-size="11" class="ink-500 f">GIOVY TEST — envoyé il y a 35 jours</text>
  <text x="324" y="630" font-size="11" font-weight="600" class="ink-700 f">120,00 €</text>
  <text x="868" y="604" text-anchor="end" font-size="11" font-weight="600" class="purple f">Voir le devis →</text>
  <line x1="284" y1="648" x2="892" y2="648" stroke="#E2E8F0" stroke-width="1"/>

  <!-- Task 5 : DSN -->
  <circle cx="304" cy="676" r="9" fill="#F1F5F9"/>
  <text x="304" y="680" text-anchor="middle" font-size="11" fill="#64748B" class="f">!</text>
  <text x="324" y="672" font-size="13" font-weight="600" class="ink f">DSN de mai 2026 à transmettre avant le 15</text>
  <rect x="680" y="662" width="50" height="18" rx="9" fill="#FED7AA"/>
  <text x="705" y="675" text-anchor="middle" font-size="10" font-weight="700" fill="#C2410C" class="f">Moyen</text>
  <text x="324" y="690" font-size="11" class="ink-500 f">Tous les bulletins sont validés. Transmettez sur net-entreprises.fr.</text>
  <text x="868" y="680" text-anchor="end" font-size="11" font-weight="600" class="purple f">Générer le récap DSN →</text>
  <line x1="284" y1="708" x2="892" y2="708" stroke="#E2E8F0" stroke-width="1"/>

  <!-- Task 6 : Employés sans IBAN -->
  <circle cx="304" cy="730" r="9" fill="#F1F5F9"/>
  <text x="304" y="734" text-anchor="middle" font-size="11" fill="#64748B" class="f">!</text>
  <text x="324" y="726" font-size="13" font-weight="600" class="ink f">2 employés sans IBAN</text>
  <rect x="494" y="716" width="50" height="18" rx="9" fill="#FED7AA"/>
  <text x="519" y="729" text-anchor="middle" font-size="10" font-weight="700" fill="#C2410C" class="f">Moyen</text>
  <text x="868" y="734" text-anchor="end" font-size="11" font-weight="600" class="purple f">Compléter les fiches →</text>

  <!-- ================ RIGHT SIDEBAR ================ -->
  <!-- Récap rapide card -->
  <rect x="936" y="84" width="248" height="220" rx="12" class="card" filter="url(#ng-shadow)"/>
  <text x="956" y="116" font-size="14" font-weight="700" class="ink f">Récap rapide</text>

  <text x="956" y="152" font-size="13" class="ink-700 f">Urgents</text>
  <text x="1164" y="152" text-anchor="end" font-size="16" font-weight="800" class="red f">3</text>

  <line x1="956" y1="164" x2="1164" y2="164" stroke="#E2E8F0" stroke-width="1"/>

  <text x="956" y="188" font-size="13" class="ink-700 f">À relancer</text>
  <text x="1164" y="188" text-anchor="end" font-size="16" font-weight="800" class="ink f">0</text>

  <line x1="956" y1="200" x2="1164" y2="200" stroke="#E2E8F0" stroke-width="1"/>

  <text x="956" y="224" font-size="13" class="ink-700 f">Devis en attente</text>
  <text x="1164" y="224" text-anchor="end" font-size="16" font-weight="800" class="ink f">1</text>

  <rect x="956" y="248" width="208" height="36" rx="8" fill="#F5F3FF"/>
  <text x="1060" y="271" text-anchor="middle" font-size="12" font-weight="700" fill="#7C3AED" class="f">Voir les factures ›</text>

  <!-- Absents aujourd'hui card -->
  <rect x="936" y="324" width="248" height="140" rx="12" class="card" filter="url(#ng-shadow)"/>
  <text x="956" y="356" font-size="14" font-weight="700" class="ink f">Absents aujourd'hui</text>
  <text x="1164" y="356" text-anchor="end" font-size="11" class="ink-500 f">0 personne</text>

  <circle cx="1060" cy="402" r="14" fill="#F1F5F9"/>
  <path d="M1054 408 q6 -8 12 0" fill="none" stroke="#94A3B8" stroke-width="1.4"/>
  <circle cx="1056" cy="398" r="1.4" fill="#94A3B8"/>
  <circle cx="1064" cy="398" r="1.4" fill="#94A3B8"/>

  <text x="1060" y="438" text-anchor="middle" font-size="11" class="ink-500 f">Tout le monde est présent</text>

  <!-- Cette semaine card -->
  <rect x="936" y="484" width="248" height="240" rx="12" class="card" filter="url(#ng-shadow)"/>
  <text x="956" y="516" font-size="14" font-weight="700" class="ink f">Cette semaine</text>
  <text x="1164" y="516" text-anchor="end" font-size="11" font-weight="600" class="purple f">Calendrier ›</text>

  <!-- Mini calendar -->
  <text x="960" y="544" font-size="10" font-weight="700" class="ink-500 f">LUN</text>
  <text x="990" y="544" font-size="10" font-weight="700" class="ink-500 f">MAR</text>
  <text x="1020" y="544" font-size="10" font-weight="700" class="ink-500 f">MER</text>
  <text x="1050" y="544" font-size="10" font-weight="700" class="ink-500 f">JEU</text>
  <text x="1080" y="544" font-size="10" font-weight="700" class="ink-500 f">VEN</text>
  <text x="1110" y="544" font-size="10" font-weight="700" class="ink-500 f">SAM</text>
  <text x="1140" y="544" font-size="10" font-weight="700" class="ink-500 f">DIM</text>

  <text x="966" y="568" font-size="12" font-weight="600" class="ink-700 f">8</text>
  <text x="996" y="568" font-size="12" font-weight="600" class="ink-700 f">9</text>
  <circle cx="1024" cy="565" r="12" fill="#7C3AED"/>
  <text x="1024" y="569" text-anchor="middle" font-size="12" font-weight="700" fill="#fff" class="f">10</text>
  <text x="1054" y="568" font-size="12" class="ink-500 f">11</text>
  <text x="1086" y="568" font-size="12" class="ink-500 f">12</text>
  <text x="1114" y="568" font-size="12" class="ink-400 f">13</text>
  <text x="1144" y="568" font-size="12" class="ink-400 f">14</text>

  <!-- Events under calendar -->
  <line x1="956" y1="588" x2="1164" y2="588" stroke="#E2E8F0" stroke-width="1"/>
  <rect x="956" y="600" width="3" height="14" fill="#7C3AED"/>
  <text x="964" y="612" font-size="11" font-weight="600" class="ink f">Démo NUMMA</text>
  <text x="1164" y="612" text-anchor="end" font-size="10" class="ink-500 f">10h30</text>

  <rect x="956" y="624" width="3" height="14" fill="#FB923C"/>
  <text x="964" y="636" font-size="11" font-weight="600" class="ink f">TVA à déclarer</text>
  <text x="1164" y="636" text-anchor="end" font-size="10" class="ink-500 f">15/06</text>

  <rect x="956" y="648" width="3" height="14" fill="#10B981"/>
  <text x="964" y="660" font-size="11" font-weight="600" class="ink f">DSN à transmettre</text>
  <text x="1164" y="660" text-anchor="end" font-size="10" class="ink-500 f">15/06</text>

  <rect x="956" y="672" width="3" height="14" fill="#A78BFA"/>
  <text x="964" y="684" font-size="11" font-weight="600" class="ink f">Relance client GIOVY</text>
  <text x="1164" y="684" text-anchor="end" font-size="10" class="ink-500 f">12/06</text>

</svg>
