<svg xmlns="http://www.w3.org/2000/svg" viewBox="0 0 1200 760" role="img" aria-label="Factures de ventes NUMMA — facture FAC-2026-001 à 1440 euros envoyée au client GIOVY TEST">
  <title>Factures de ventes NUMMA — conformes réforme 2026</title>
  <desc>Capture d'écran du module facturation électronique NUMMA : liste des factures de ventes avec totaux émis, encaissé, en attente et actions (PDF, marquer payée).</desc>
  <defs>
    <linearGradient id="avatarG2" x1="0" y1="0" x2="1" y2="1"><stop offset="0" stop-color="#8B5CF6"/><stop offset="1" stop-color="#6D28D9"/></linearGradient>
    <filter id="shadow2" x="-10%" y="-10%" width="120%" height="120%"><feDropShadow dx="0" dy="2" stdDeviation="3" flood-color="#0B0F19" flood-opacity="0.06"/></filter>
  </defs>
  <style>
    .app{font-family:'Inter',system-ui,sans-serif}
    .text-dark{fill:#0B0F19}.text-muted{fill:#6B7280}.text-light{fill:#9CA3AF}
    .card{fill:#fff;stroke:#E5E7EB;stroke-width:1}
  </style>
  <rect width="1200" height="760" fill="#F9FAFB"/>

  <!-- Sidebar -->
  <rect x="0" y="0" width="230" height="760" fill="#fff" stroke="#E5E7EB"/>
  <rect x="16" y="16" width="198" height="56" rx="10" fill="#F9FAFB" stroke="#E5E7EB"/>
  <circle cx="40" cy="44" r="16" fill="#E5E7EB"/>
  <text x="40" y="49" text-anchor="middle" font-size="12" font-weight="700" fill="#6B7280" class="app">G</text>
  <text x="66" y="42" font-size="13" font-weight="700" class="text-dark app">GIOVVVV</text>
  <rect x="66" y="48" width="42" height="16" rx="8" fill="#F3E8FF"/>
  <text x="87" y="59" text-anchor="middle" font-size="9" font-weight="700" fill="#7C3AED" class="app">Admin</text>

  <text x="40" y="108" font-size="13" fill="#374151" class="app">Accueil</text>
  <text x="24" y="138" font-size="10" font-weight="700" fill="#9CA3AF" letter-spacing="0.6" class="app">FACTURATION</text>
  <!-- Active: Factures ventes -->
  <rect x="16" y="152" width="198" height="36" rx="8" fill="#F5F3FF"/>
  <rect x="16" y="152" width="3" height="36" fill="#7C3AED"/>
  <text x="40" y="175" font-size="13" font-weight="600" fill="#7C3AED" class="app">Factures ventes</text>

  <text x="40" y="210" font-size="12" fill="#374151" class="app">Factures achats</text>
  <text x="40" y="234" font-size="12" fill="#374151" class="app">Devis</text>
  <text x="40" y="258" font-size="12" fill="#374151" class="app">Catalogue</text>
  <text x="40" y="282" font-size="12" fill="#374151" class="app">Relances</text>

  <text x="24" y="310" font-size="10" font-weight="700" fill="#9CA3AF" letter-spacing="0.6" class="app">CLIENTS &amp; FOURN</text>
  <text x="40" y="336" font-size="12" fill="#374151" class="app">Clients</text>
  <text x="40" y="360" font-size="12" fill="#374151" class="app">Fournisseurs</text>

  <text x="24" y="388" font-size="10" font-weight="700" fill="#9CA3AF" letter-spacing="0.6" class="app">COMPTABILITÉ</text>
  <text x="40" y="414" font-size="12" fill="#374151" class="app">Grand livre</text>
  <text x="40" y="438" font-size="12" fill="#374151" class="app">Balance</text>
  <text x="40" y="462" font-size="12" fill="#374151" class="app">Bilan</text>
  <text x="40" y="486" font-size="12" fill="#374151" class="app">TVA</text>
  <text x="40" y="510" font-size="12" fill="#374151" class="app">Archives &amp; Audit</text>

  <text x="24" y="538" font-size="10" font-weight="700" fill="#9CA3AF" letter-spacing="0.6" class="app">FINANCE</text>
  <text x="40" y="564" font-size="12" fill="#374151" class="app">Trésorerie</text>
  <text x="40" y="588" font-size="12" fill="#374151" class="app">Caisse</text>

  <rect x="0" y="696" width="230" height="64" fill="#FAFAFA" stroke="#E5E7EB"/>
  <circle cx="32" cy="728" r="16" fill="url(#avatarG2)"/>
  <text x="32" y="732" text-anchor="middle" font-size="11" font-weight="700" fill="#fff" class="app">MT</text>
  <text x="56" y="724" font-size="12" font-weight="700" class="text-dark app">MALLO TES</text>
  <rect x="140" y="714" width="48" height="18" rx="9" fill="#F3E8FF"/>
  <text x="164" y="726" text-anchor="middle" font-size="9" font-weight="700" fill="#7C3AED" class="app">Admin</text>

  <!-- Top bar -->
  <rect x="230" y="0" width="970" height="72" fill="#fff" stroke="#E5E7EB"/>
  <text x="260" y="42" font-size="13" fill="#6B7280" class="app">Facturation / <tspan fill="#0B0F19" font-weight="600">Factures ventes</tspan></text>
  <rect x="560" y="22" width="320" height="30" rx="15" fill="#F3F4F6"/>
  <text x="580" y="42" font-size="12" fill="#9CA3AF" class="app">Rechercher</text>
  <circle cx="1040" cy="36" r="14" fill="#F3F4F6"/>
  <text x="1040" y="41" text-anchor="middle" font-size="13" class="app"></text>
  <rect x="1070" y="18" width="120" height="36" rx="18" fill="#F9FAFB"/>
  <circle cx="1090" cy="36" r="12" fill="url(#avatarG2)"/>
  <text x="1090" y="40" text-anchor="middle" font-size="10" font-weight="700" fill="#fff" class="app">MT</text>
  <text x="1108" y="40" font-size="11" font-weight="700" class="text-dark app">MALLO TEST</text>

  <!-- Header -->
  <text x="260" y="118" font-size="24" font-weight="800" class="text-dark app">Factures ventes</text>
  <text x="260" y="142" font-size="12" class="text-muted app">1 facture</text>
  <!-- Button -->
  <rect x="1000" y="100" width="180" height="44" rx="10" fill="#7C3AED"/>
  <text x="1090" y="127" text-anchor="middle" font-size="13" font-weight="700" fill="#fff" class="app">+ Nouvelle facture</text>

  <!-- Stat cards -->
  <rect x="260" y="168" width="218" height="110" rx="12" class="card" filter="url(#shadow2)"/>
  <rect x="280" y="186" width="30" height="30" rx="8" fill="#F5F3FF"/>
  <text x="295" y="206" text-anchor="middle" font-size="14" class="app"></text>
  <text x="280" y="236" font-size="10" class="text-muted app">Total émis</text>
  <text x="280" y="262" font-size="22" font-weight="800" class="text-dark app">1 440,00</text>
  <text x="280" y="278" font-size="10" class="text-muted app">1 facture</text>

  <rect x="493" y="168" width="218" height="110" rx="12" class="card" filter="url(#shadow2)"/>
  <rect x="513" y="186" width="30" height="30" rx="8" fill="#D1FAE5"/>
  <text x="528" y="206" text-anchor="middle" font-size="14" class="app"></text>
  <text x="513" y="236" font-size="10" class="text-muted app">Encaissé</text>
  <text x="513" y="262" font-size="22" font-weight="800" class="text-dark app">0,00</text>
  <text x="513" y="278" font-size="10" class="text-muted app">0 %</text>

  <rect x="726" y="168" width="218" height="110" rx="12" class="card" filter="url(#shadow2)"/>
  <rect x="746" y="186" width="30" height="30" rx="8" fill="#F5F3FF"/>
  <text x="761" y="206" text-anchor="middle" font-size="14" class="app"></text>
  <text x="746" y="236" font-size="10" class="text-muted app">En attente</text>
  <text x="746" y="262" font-size="22" font-weight="800" fill="#7C3AED" class="app">1 440,00</text>
  <text x="746" y="278" font-size="10" class="text-muted app">Envoyées</text>

  <rect x="959" y="168" width="218" height="110" rx="12" class="card" filter="url(#shadow2)"/>
  <rect x="979" y="186" width="30" height="30" rx="8" fill="#FEF3C7"/>
  <text x="994" y="206" text-anchor="middle" font-size="14" class="app"></text>
  <text x="979" y="236" font-size="10" class="text-muted app">Brouillons</text>
  <text x="979" y="262" font-size="22" font-weight="800" class="text-dark app">0</text>
  <text x="979" y="278" font-size="10" class="text-muted app">À envoyer</text>

  <!-- Filter tabs -->
  <rect x="260" y="302" width="86" height="34" rx="17" fill="#7C3AED"/>
  <text x="303" y="324" text-anchor="middle" font-size="12" font-weight="600" fill="#fff" class="app">Toutes</text>
  <rect x="356" y="302" width="86" height="34" rx="17" fill="#fff" stroke="#E5E7EB"/>
  <text x="399" y="324" text-anchor="middle" font-size="12" class="text-dark app">Brouillon</text>
  <rect x="452" y="302" width="86" height="34" rx="17" fill="#fff" stroke="#E5E7EB"/>
  <text x="495" y="324" text-anchor="middle" font-size="12" class="text-dark app">Envoyée</text>
  <rect x="548" y="302" width="86" height="34" rx="17" fill="#fff" stroke="#E5E7EB"/>
  <text x="591" y="324" text-anchor="middle" font-size="12" class="text-dark app">Transmise</text>
  <rect x="644" y="302" width="86" height="34" rx="17" fill="#fff" stroke="#E5E7EB"/>
  <text x="687" y="324" text-anchor="middle" font-size="12" class="text-dark app">Approuvée</text>
  <rect x="740" y="302" width="86" height="34" rx="17" fill="#fff" stroke="#E5E7EB"/>
  <text x="783" y="324" text-anchor="middle" font-size="12" class="text-dark app">Rejetée</text>
  <rect x="836" y="302" width="86" height="34" rx="17" fill="#fff" stroke="#E5E7EB"/>
  <text x="879" y="324" text-anchor="middle" font-size="12" class="text-dark app">Payée</text>
  <rect x="932" y="302" width="86" height="34" rx="17" fill="#fff" stroke="#E5E7EB"/>
  <text x="975" y="324" text-anchor="middle" font-size="12" class="text-dark app">Annulée</text>

  <!-- Table card -->
  <rect x="260" y="356" width="917" height="170" rx="12" class="card" filter="url(#shadow2)"/>
  <text x="280" y="390" font-size="10" font-weight="700" class="text-light app" letter-spacing="0.5">NUMÉRO</text>
  <text x="430" y="390" font-size="10" font-weight="700" class="text-light app" letter-spacing="0.5">CLIENT</text>
  <text x="620" y="390" font-size="10" font-weight="700" class="text-light app" letter-spacing="0.5">STATUT</text>
  <text x="760" y="390" font-size="10" font-weight="700" class="text-light app" letter-spacing="0.5">DATE</text>
  <text x="870" y="390" font-size="10" font-weight="700" class="text-light app" letter-spacing="0.5">ÉCHÉANCE</text>
  <text x="990" y="390" font-size="10" font-weight="700" class="text-light app" letter-spacing="0.5">TOTAL TTC</text>
  <text x="1100" y="390" font-size="10" font-weight="700" class="text-light app" letter-spacing="0.5">ACTIONS</text>
  <line x1="280" y1="402" x2="1157" y2="402" stroke="#F3F4F6"/>
  <!-- Row -->
  <text x="280" y="440" font-size="13" font-weight="600" fill="#7C3AED" class="app">FAC-2026-001</text>
  <text x="430" y="440" font-size="13" class="text-dark app">GIOVY TEST</text>
  <rect x="608" y="424" width="84" height="24" rx="12" fill="#DBEAFE"/>
  <text x="650" y="440" text-anchor="middle" font-size="12" font-weight="600" fill="#2563EB" class="app">Envoyée</text>
  <text x="760" y="440" font-size="13" class="text-dark app">21/04/2026</text>
  <text x="870" y="440" font-size="13" class="text-dark app">21/05/2026</text>
  <text x="990" y="440" font-size="13" font-weight="700" class="text-dark app">1 440,00</text>
  <!-- Actions -->
  <rect x="1076" y="422" width="40" height="26" rx="6" fill="#F3F4F6"/>
  <text x="1096" y="440" text-anchor="middle" font-size="10" font-weight="600" class="text-dark app">⬇ PDF</text>
  <rect x="1122" y="422" width="48" height="26" rx="6" fill="#D1FAE5"/>
  <text x="1146" y="440" text-anchor="middle" font-size="9" font-weight="600" fill="#047857" class="app">Marquer payée</text>

  <!-- Legal badge at bottom -->
  <rect x="260" y="560" width="917" height="50" rx="10" fill="#FAF5FF" stroke="#E9D5FF"/>
  <text x="280" y="580" font-size="11" font-weight="700" fill="#7C3AED" class="app">Conforme réforme 2026</text>
  <text x="280" y="598" font-size="11" class="text-muted app">Factur-X · XML obligatoire · PDP/PPF · archivage 10 ans · signature horodatée</text>
</svg>
