<svg xmlns="http://www.w3.org/2000/svg" viewBox="0 0 1200 760" role="img" aria-label="Module Trésorerie NUMMA — agrégation bancaire Bridge DSP2, solde 86240 euros et prévisionnel IA 12 mois">
  <title>Trésorerie NUMMA — agrégation bancaire DSP2 et cash-flow IA</title>
  <desc>Capture d'écran du module trésorerie NUMMA : connexion sécurisée DSP2 à 200+ banques françaises, prévisionnel IA 12 mois, scénarios.</desc>
  <defs>
    <linearGradient id="avatarG6" x1="0" y1="0" x2="1" y2="1"><stop offset="0" stop-color="#8B5CF6"/><stop offset="1" stop-color="#6D28D9"/></linearGradient>
    <linearGradient id="chartG" x1="0" y1="0" x2="0" y2="1"><stop offset="0" stop-color="#7C3AED" stop-opacity="0.4"/><stop offset="1" stop-color="#7C3AED" stop-opacity="0"/></linearGradient>
    <filter id="shadow6" x="-10%" y="-10%" width="120%" height="120%"><feDropShadow dx="0" dy="2" stdDeviation="3" flood-color="#0B0F19" flood-opacity="0.06"/></filter>
  </defs>
  <style>.app{font-family:'Inter',system-ui,sans-serif}.text-dark{fill:#0B0F19}.text-muted{fill:#6B7280}.text-light{fill:#9CA3AF}.card{fill:#fff;stroke:#E5E7EB;stroke-width:1}</style>
  <rect width="1200" height="760" fill="#F9FAFB"/>

  <!-- Sidebar simplified -->
  <rect x="0" y="0" width="230" height="760" fill="#fff" stroke="#E5E7EB"/>
  <rect x="16" y="16" width="198" height="56" rx="10" fill="#F9FAFB" stroke="#E5E7EB"/>
  <circle cx="40" cy="44" r="16" fill="#E5E7EB"/>
  <text x="40" y="49" text-anchor="middle" font-size="12" font-weight="700" fill="#6B7280" class="app">G</text>
  <text x="66" y="42" font-size="13" font-weight="700" class="text-dark app">GIOVVVV</text>
  <rect x="66" y="48" width="42" height="16" rx="8" fill="#F3E8FF"/>
  <text x="87" y="59" text-anchor="middle" font-size="9" font-weight="700" fill="#7C3AED" class="app">Admin</text>

  <text x="40" y="108" font-size="13" fill="#374151" class="app">Accueil</text>
  <text x="24" y="138" font-size="10" font-weight="700" fill="#9CA3AF" letter-spacing="0.6" class="app">FACTURATION</text>
  <text x="40" y="164" font-size="12" fill="#374151" class="app">Factures ventes</text>
  <text x="40" y="188" font-size="12" fill="#374151" class="app">Factures achats</text>
  <text x="24" y="222" font-size="10" font-weight="700" fill="#9CA3AF" letter-spacing="0.6" class="app">COMPTABILITÉ</text>
  <text x="40" y="248" font-size="12" fill="#374151" class="app">Grand livre</text>
  <text x="40" y="272" font-size="12" fill="#374151" class="app">TVA</text>
  <text x="24" y="304" font-size="10" font-weight="700" fill="#9CA3AF" letter-spacing="0.6" class="app">FINANCE</text>
  <!-- Active: Trésorerie -->
  <rect x="16" y="316" width="198" height="36" rx="8" fill="#F5F3FF"/>
  <rect x="16" y="316" width="3" height="36" fill="#7C3AED"/>
  <text x="40" y="339" font-size="13" font-weight="600" fill="#7C3AED" class="app">Trésorerie</text>
  <text x="40" y="374" font-size="12" fill="#374151" class="app">Caisse</text>
  <text x="24" y="404" font-size="10" font-weight="700" fill="#9CA3AF" letter-spacing="0.6" class="app">RH</text>
  <text x="40" y="430" font-size="12" fill="#374151" class="app">Fiches de paie</text>

  <rect x="0" y="696" width="230" height="64" fill="#FAFAFA" stroke="#E5E7EB"/>
  <circle cx="32" cy="728" r="16" fill="url(#avatarG6)"/>
  <text x="32" y="732" text-anchor="middle" font-size="11" font-weight="700" fill="#fff" class="app">MT</text>
  <text x="56" y="724" font-size="12" font-weight="700" class="text-dark app">MALLO TES</text>

  <!-- Top bar -->
  <rect x="230" y="0" width="970" height="72" fill="#fff" stroke="#E5E7EB"/>
  <text x="260" y="42" font-size="13" fill="#6B7280" class="app">Finance / <tspan fill="#0B0F19" font-weight="600">Trésorerie</tspan></text>
  <rect x="560" y="22" width="320" height="30" rx="15" fill="#F3F4F6"/>
  <text x="580" y="42" font-size="12" fill="#9CA3AF" class="app">Rechercher</text>
  <rect x="1070" y="18" width="120" height="36" rx="18" fill="#F9FAFB"/>
  <circle cx="1090" cy="36" r="12" fill="url(#avatarG6)"/>
  <text x="1090" y="40" text-anchor="middle" font-size="10" font-weight="700" fill="#fff" class="app">MT</text>
  <text x="1108" y="40" font-size="11" font-weight="700" class="text-dark app">MALLO TEST</text>

  <text x="260" y="118" font-size="24" font-weight="800" class="text-dark app">Trésorerie</text>
  <text x="260" y="142" font-size="12" class="text-muted app">Agrégation bancaire sécurisée DSP2 · prévisionnel IA 12 mois</text>
  <rect x="990" y="100" width="180" height="44" rx="10" fill="#7C3AED"/>
  <text x="1080" y="127" text-anchor="middle" font-size="13" font-weight="700" fill="#fff" class="app">+ Connecter une banque</text>

  <!-- KPI -->
  <rect x="260" y="168" width="296" height="110" rx="12" class="card" filter="url(#shadow6)"/>
  <text x="280" y="192" font-size="10" font-weight="700" class="text-light app" letter-spacing="0.6">SOLDE TOTAL</text>
  <text x="280" y="234" font-size="28" font-weight="800" class="text-dark app">86 240,00</text>
  <text x="280" y="258" font-size="11" fill="#10B981" class="app">+4 820 ce mois</text>

  <rect x="572" y="168" width="296" height="110" rx="12" class="card" filter="url(#shadow6)"/>
  <text x="592" y="192" font-size="10" font-weight="700" class="text-light app" letter-spacing="0.6">ENTRÉES 30 J</text>
  <text x="592" y="234" font-size="24" font-weight="800" fill="#10B981" class="app">+ 28 140,00</text>
  <text x="592" y="258" font-size="11" class="text-muted app">14 virements reçus</text>

  <rect x="884" y="168" width="296" height="110" rx="12" class="card" filter="url(#shadow6)"/>
  <text x="904" y="192" font-size="10" font-weight="700" class="text-light app" letter-spacing="0.6">SORTIES 30 J</text>
  <text x="904" y="234" font-size="24" font-weight="800" fill="#EF4444" class="app">23 320,00</text>
  <text x="904" y="258" font-size="11" class="text-muted app">Charges · salaires · TVA</text>

  <!-- Bank accounts -->
  <rect x="260" y="296" width="436" height="280" rx="12" class="card" filter="url(#shadow6)"/>
  <text x="280" y="320" font-size="14" font-weight="700" class="text-dark app">Comptes connectés</text>
  <text x="676" y="320" text-anchor="end" font-size="11" fill="#10B981" class="app">Sync auto</text>

  <!-- Qonto -->
  <rect x="280" y="338" width="36" height="36" rx="8" fill="#111827"/>
  <text x="298" y="360" text-anchor="middle" font-size="11" font-weight="800" fill="#fff" class="app">Q</text>
  <text x="328" y="356" font-size="13" font-weight="600" class="text-dark app">Qonto Pro</text>
  <text x="328" y="372" font-size="11" class="text-muted app">FR76 4821</text>
  <text x="676" y="356" text-anchor="end" font-size="14" font-weight="700" class="text-dark app">48 120,00</text>
  <rect x="616" y="364" width="60" height="16" rx="8" fill="#D1FAE5"/>
  <text x="646" y="376" text-anchor="middle" font-size="9" font-weight="600" fill="#047857" class="app">Connecté</text>

  <!-- BNP -->
  <rect x="280" y="392" width="36" height="36" rx="8" fill="#00915A"/>
  <text x="298" y="414" text-anchor="middle" font-size="9" font-weight="800" fill="#fff" class="app">BNP</text>
  <text x="328" y="410" font-size="13" font-weight="600" class="text-dark app">BNP Paribas</text>
  <text x="328" y="426" font-size="11" class="text-muted app">FR76 1205</text>
  <text x="676" y="410" text-anchor="end" font-size="14" font-weight="700" class="text-dark app">31 420,00</text>
  <rect x="616" y="418" width="60" height="16" rx="8" fill="#D1FAE5"/>
  <text x="646" y="430" text-anchor="middle" font-size="9" font-weight="600" fill="#047857" class="app">Connecté</text>

  <!-- Revolut -->
  <rect x="280" y="446" width="36" height="36" rx="8" fill="#0066FF"/>
  <text x="298" y="468" text-anchor="middle" font-size="11" font-weight="800" fill="#fff" class="app">R</text>
  <text x="328" y="464" font-size="13" font-weight="600" class="text-dark app">Revolut Business</text>
  <text x="328" y="480" font-size="11" class="text-muted app">GB33 7712</text>
  <text x="676" y="464" text-anchor="end" font-size="14" font-weight="700" class="text-dark app">6 700,00</text>
  <rect x="616" y="472" width="60" height="16" rx="8" fill="#D1FAE5"/>
  <text x="646" y="484" text-anchor="middle" font-size="9" font-weight="600" fill="#047857" class="app">Connecté</text>

  <!-- Add bank -->
  <rect x="280" y="504" width="396" height="44" rx="10" fill="#F5F3FF" stroke="#E9D5FF" stroke-dasharray="4 4"/>
  <text x="478" y="531" text-anchor="middle" font-size="12" font-weight="600" fill="#7C3AED" class="app">+ Connecter une autre banque (200+ supportées)</text>

  <!-- Cash-flow chart card -->
  <rect x="712" y="296" width="468" height="280" rx="12" class="card" filter="url(#shadow6)"/>
  <text x="732" y="320" font-size="14" font-weight="700" class="text-dark app">Prévisionnel IA 12 mois</text>
  <rect x="1078" y="304" width="96" height="26" rx="13" fill="#F5F3FF"/>
  <text x="1126" y="321" text-anchor="middle" font-size="11" font-weight="600" fill="#7C3AED" class="app">Scénario réaliste</text>

  <!-- Chart area -->
  <g transform="translate(732,340)">
    <!-- Grid -->
    <line x1="0" y1="0" x2="428" y2="0" stroke="#F3F4F6"/>
    <line x1="0" y1="40" x2="428" y2="40" stroke="#F3F4F6"/>
    <line x1="0" y1="80" x2="428" y2="80" stroke="#F3F4F6"/>
    <line x1="0" y1="120" x2="428" y2="120" stroke="#F3F4F6"/>
    <line x1="0" y1="160" x2="428" y2="160" stroke="#E5E7EB"/>
    <!-- Area fill -->
    <path d="M0,140 L36,120 L72,110 L108,80 L144,70 L180,60 L216,40 L252,50 L288,30 L324,20 L360,10 L396,15 L428,5 L428,160 L0,160 Z" fill="url(#chartG)"/>
    <!-- Line -->
    <path d="M0,140 L36,120 L72,110 L108,80 L144,70 L180,60 L216,40 L252,50 L288,30 L324,20 L360,10 L396,15 L428,5" stroke="#7C3AED" stroke-width="2.5" fill="none" stroke-linecap="round" stroke-linejoin="round"/>
    <!-- Dots -->
    <circle cx="216" cy="40" r="4" fill="#fff" stroke="#7C3AED" stroke-width="2"/>
    <circle cx="428" cy="5" r="4" fill="#7C3AED"/>

    <!-- X labels -->
    <text x="0" y="180" font-size="10" class="text-light app">Avr</text>
    <text x="72" y="180" font-size="10" class="text-light app">Juin</text>
    <text x="144" y="180" font-size="10" class="text-light app">Août</text>
    <text x="216" y="180" font-size="10" class="text-light app">Oct</text>
    <text x="288" y="180" font-size="10" class="text-light app">Déc</text>
    <text x="360" y="180" font-size="10" class="text-light app">Fév</text>
  </g>

  <!-- Mini forecast row -->
  <rect x="732" y="544" width="134" height="20" rx="6" fill="#F5F3FF"/>
  <text x="744" y="558" font-size="10" fill="#7C3AED" font-weight="600" class="app">Juil : + 94 200</text>
  <rect x="874" y="544" width="134" height="20" rx="6" fill="#F5F3FF"/>
  <text x="886" y="558" font-size="10" fill="#7C3AED" font-weight="600" class="app">Oct : + 102 600</text>
  <rect x="1016" y="544" width="144" height="20" rx="6" fill="#FEF3C7"/>
  <text x="1088" y="558" text-anchor="middle" font-size="10" fill="#D97706" font-weight="600" class="app">Creux mi-août 8 k</text>

  <!-- DSP2 badge -->
  <rect x="260" y="596" width="920" height="50" rx="10" fill="#F0F9FF" stroke="#BAE6FD"/>
  <text x="280" y="616" font-size="12" font-weight="700" fill="#0369A1" class="app">Connexion sécurisée DSP2 · OAuth bancaire · Bridge API · Budget Insight</text>
  <text x="280" y="634" font-size="11" class="text-muted app">Synchronisation horaire · rapprochement bancaire ML · catégorisation IA · export FEC</text>
</svg>
